<svg width="132" height="54" viewBox="0 0 132 54" fill="none" xmlns="http://www.w3.org/2000/svg">
<g filter="url(#filter0_d_1_1154)">
<path d="M13.3773 15.585C15.7401 15.585 17.8049 16.0533 19.5717 16.99C21.3385 17.9266 22.7009 19.2464 23.6588 20.9493C24.638 22.631 25.1276 24.5787 25.1276 26.7925C25.1276 28.9851 24.638 30.9328 23.6588 32.6357C22.7009 34.3387 21.3279 35.6585 19.5398 36.5951C17.773 37.5317 15.7188 38 13.3773 38H4.97967V15.585H13.3773ZM13.0261 33.2743C15.0909 33.2743 16.698 32.7102 17.8475 31.582C18.997 30.4538 19.5717 28.8573 19.5717 26.7925C19.5717 24.7277 18.997 23.1206 17.8475 21.9711C16.698 20.8216 15.0909 20.2468 13.0261 20.2468H10.4397V33.2743H13.0261ZM27.0933 29.0596C27.0933 27.2289 27.4339 25.6217 28.1151 24.2381C28.8175 22.8545 29.7648 21.7901 30.9568 21.0451C32.1489 20.3001 33.4793 19.9275 34.9481 19.9275C36.204 19.9275 37.3003 20.183 38.2369 20.6939C39.1948 21.2047 39.9292 21.8753 40.4401 22.7055V20.183H45.9001V38H40.4401V35.4775C39.9079 36.3077 39.1629 36.9782 38.205 37.4891C37.2684 38 36.1721 38.2554 34.9162 38.2554C33.4687 38.2554 32.1489 37.8829 30.9568 37.1379C29.7648 36.3716 28.8175 35.2966 28.1151 33.9129C27.4339 32.508 27.0933 30.8902 27.0933 29.0596ZM40.4401 29.0915C40.4401 27.7291 40.0569 26.6542 39.2906 25.8665C38.5456 25.0789 37.6302 24.6851 36.5446 24.6851C35.459 24.6851 34.533 25.0789 33.7667 25.8665C33.0217 26.6329 32.6491 27.6972 32.6491 29.0596C32.6491 30.4219 33.0217 31.5075 33.7667 32.3164C34.533 33.104 35.459 33.4978 36.5446 33.4978C37.6302 33.4978 38.5456 33.104 39.2906 32.3164C40.0569 31.5288 40.4401 30.4538 40.4401 29.0915ZM60.7065 19.9914C62.7926 19.9914 64.453 20.6726 65.6876 22.0349C66.9435 23.376 67.5715 25.2279 67.5715 27.5908V38H62.1434V28.3252C62.1434 27.1331 61.8347 26.2071 61.2174 25.5472C60.6001 24.8874 59.7699 24.5574 58.7268 24.5574C57.6838 24.5574 56.8536 24.8874 56.2363 25.5472C55.619 26.2071 55.3103 27.1331 55.3103 28.3252V38H49.8503V20.183H55.3103V22.5458C55.8638 21.7582 56.6088 21.1409 57.5454 20.6939C58.482 20.2256 59.5357 19.9914 60.7065 19.9914ZM70.2801 29.0596C70.2801 27.2289 70.6206 25.6217 71.3018 24.2381C72.0043 22.8545 72.9515 21.7901 74.1436 21.0451C75.3357 20.3001 76.6661 19.9275 78.1349 19.9275C79.3908 19.9275 80.4871 20.183 81.4237 20.6939C82.3816 21.2047 83.116 21.8753 83.6269 22.7055V20.183H89.0869V38H83.6269V35.4775C83.0947 36.3077 82.3496 36.9782 81.3917 37.4891C80.4551 38 79.3589 38.2554 78.1029 38.2554C76.6554 38.2554 75.3357 37.8829 74.1436 37.1379C72.9515 36.3716 72.0043 35.2966 71.3018 33.9129C70.6206 32.508 70.2801 30.8902 70.2801 29.0596ZM83.6269 29.0915C83.6269 27.7291 83.2437 26.6542 82.4774 25.8665C81.7323 25.0789 80.817 24.6851 79.7314 24.6851C78.6458 24.6851 77.7198 25.0789 76.9535 25.8665C76.2084 26.6329 75.8359 27.6972 75.8359 29.0596C75.8359 30.4219 76.2084 31.5075 76.9535 32.3164C77.7198 33.104 78.6458 33.4978 79.7314 33.4978C80.817 33.4978 81.7323 33.104 82.4774 32.3164C83.2437 31.5288 83.6269 30.4538 83.6269 29.0915ZM103.893 19.9914C105.979 19.9914 107.64 20.6726 108.874 22.0349C110.13 23.376 110.758 25.2279 110.758 27.5908V38H105.33V28.3252C105.33 27.1331 105.021 26.2071 104.404 25.5472C103.787 24.8874 102.957 24.5574 101.914 24.5574C100.871 24.5574 100.04 24.8874 99.423 25.5472C98.8057 26.2071 98.4971 27.1331 98.4971 28.3252V38H93.037V20.183H98.4971V22.5458C99.0505 21.7582 99.7956 21.1409 100.732 20.6939C101.669 20.2256 102.722 19.9914 103.893 19.9914ZM119.661 33.4978H127.388V38H113.563V33.6575L120.97 24.6851H113.626V20.183H127.229V24.5255L119.661 33.4978Z" fill="black"/>
<path d="M58.6152 29V41.5H102V29" stroke="black" stroke-width="2" stroke-linecap="round"/>
</g>
<defs>
<filter id="filter0_d_1_1154" x="0.979492" y="15.585" width="130.409" height="34.915" filterUnits="userSpaceOnUse" color-interpolation-filters="sRGB">
<feFlood flood-opacity="0" result="BackgroundImageFix"/>
<feColorMatrix in="SourceAlpha" type="matrix" values="0 0 0 0 0 0 0 0 0 0 0 0 0 0 0 0 0 0 127 0" result="hardAlpha"/>
<feOffset dy="4"/>
<feGaussianBlur stdDeviation="2"/>
<feComposite in2="hardAlpha" operator="out"/>
<feColorMatrix type="matrix" values="0 0 0 0 0 0 0 0 0 0 0 0 0 0 0 0 0 0 0.25 0"/>
<feBlend mode="normal" in2="BackgroundImageFix" result="effect1_dropShadow_1_1154"/>
<feBlend mode="normal" in="SourceGraphic" in2="effect1_dropShadow_1_1154" result="shape"/>
</filter>
</defs>
</svg>
